# xmcd
#
# Track frame offsets:
#	183
#	19473
#	42100
#	59678
#	76905
#	93380
#	106895
#	128205
#	147043
#	165360
#	184075
#	202043
#
# Disc length: 3012 seconds
#
# Revision: 1
# Processed by: cddbd v1.5.2PL0 Copyright (c) Steve Scherf et al.
# Submitted via: audiograbber 1.83.01
#
DISCID=9f0bc20c
DTITLE=MATT DAWSON - CALL YOU ON THE TELEPHONE
DYEAR=1991
DGENRE=
TTITLE0=TELEPHONE
TTITLE1=SON OF A FOOL
TTITLE2=THE RAIN
TTITLE3=POOR JENNY
TTITLE4=WHEN LOVE COMES AROUND
TTITLE5=MOVING ON
TTITLE6=MARIE-RACHELLE
TTITLE7=COCO and FAHRENHEIT "91
TTITLE8=SNOW ON THE GROUND
TTITLE9=LOVE GONE WRONG
TTITLE10=CEFN COED UCHAF
TTITLE11=NEVER SAY DIE
EXTD=
EXTT0=
EXTT1=
EXTT2=
EXTT3=
EXTT4=
EXTT5=
EXTT6=
EXTT7=
EXTT8=
EXTT9=
EXTT10=
EXTT11=
PLAYORDER=
